<?xml version="1.0" encoding="UTF-8"?>
<svg width="128" height="128" version="1.1" viewBox="0 0 120 120" xmlns="http://www.w3.org/2000/svg"><defs><filter id="filter1071" x="-.044107" y="-.065302" width="1.0882" height="1.1306" color-interpolation-filters="sRGB"><feGaussianBlur stdDeviation="1.9641496"/></filter></defs><path d="m6.5625 14.062v42.188h106.88v-30.938h-60l-4.6875-11.25z" fill="#758185" fill-rule="evenodd"/><path d="m4.6875 48.75h36.562l4.6875-11.25h69.375v72.188h-110.62z" fill-opacity=".63656" fill-rule="evenodd" filter="url(#filter1071)"/><g fill-rule="evenodd"><path d="m2.8125 48.75h38.438l4.6875-11.25h71.25v71.25h-114.38z" fill="#a7b7bb"/><path d="m2.8125 74.062h114.38v34.688h-114.38z" fill="#394153"/><g transform="translate(-5.625,4.6875)" fill="#2bdbff" stroke-width=".9375"><rect x="15.938" y="76.875" width="1.875" height="1.875"/><rect x="17.812" y="78.75" width="1.875" height="1.875"/><rect x="19.688" y="80.625" width="1.875" height="1.875"/><rect x="21.562" y="82.5" width="1.875" height="1.875"/><rect x="19.688" y="84.375" width="1.875" height="1.875"/><rect x="17.812" y="86.25" width="1.875" height="1.875"/><rect x="15.938" y="88.125" width="1.875" height="1.875"/><rect x="23.438" y="88.125" width="7.5" height="1.875"/></g></g></svg>
